<?xml version="1.0" standalone="no"?>
<!DOCTYPE svg PUBLIC "-//W3C//DTD SVG 20010904//EN"
 "http://www.w3.org/TR/2001/REC-SVG-20010904/DTD/svg10.dtd">
<svg version="1.0" xmlns="http://www.w3.org/2000/svg"
 width="120" height="120" viewBox="0 0 540 540"
 preserveAspectRatio="xMidYMid meet">

<g transform="translate(0.000000,540.000000) scale(0.100000,-0.100000)"
fill="#000000" stroke="none">
<path d="M2610 4619 c-92 -8 -246 -46 -313 -78 -23 -10 -60 -27 -82 -37 -145
-66 -361 -267 -443 -412 -53 -95 -78 -147 -98 -209 -13 -40 -28 -81 -33 -90
-36 -71 -53 -393 -27 -520 9 -44 16 -91 16 -104 0 -13 7 -33 15 -43 8 -11 15
-26 15 -34 0 -28 127 -292 141 -292 5 0 11 -11 15 -25 3 -14 10 -25 15 -25 5
0 9 -4 9 -10 0 -8 37 -62 78 -115 4 -5 19 -25 32 -44 126 -176 420 -474 682
-689 11 -9 18 -10 23 -3 6 11 -22 41 -77 84 -105 80 -390 365 -473 472 -29 37
-85 105 -95 115 -3 3 -9 13 -15 22 -19 33 -70 103 -92 127 -12 14 -32 46 -45
73 -12 26 -26 48 -30 48 -5 0 -8 5 -8 11 0 7 -20 53 -44 103 -27 57 -56 139
-75 218 -28 114 -31 142 -31 280 0 166 15 256 65 398 34 97 133 277 158 288 4
2 7 9 7 16 0 20 143 161 227 223 73 54 123 82 245 137 20 9 42 16 50 16 8 0
19 5 24 10 26 26 302 61 417 53 61 -4 87 -3 87 5 0 27 -182 44 -340 31z"/>
<path d="M2993 4573 c9 -2 25 -2 35 0 9 3 1 5 -18 5 -19 0 -27 -2 -17 -5z"/>
<path d="M3108 4543 c7 -3 16 -2 19 1 4 3 -2 6 -13 5 -11 0 -14 -3 -6 -6z"/>
<path d="M3590 4540 c0 -5 7 -10 16 -10 8 0 12 5 9 10 -3 6 -10 10 -16 10 -5
0 -9 -4 -9 -10z"/>
<path d="M3654 4485 c15 -14 32 -25 39 -25 13 0 -43 49 -57 50 -5 0 3 -11 18
-25z"/>
<path d="M3705 4440 c3 -5 8 -10 11 -10 2 0 4 5 4 10 0 6 -5 10 -11 10 -5 0
-7 -4 -4 -10z"/>
<path d="M3740 4399 c7 -11 14 -18 17 -15 8 8 -5 36 -17 36 -7 0 -7 -6 0 -21z"/>
<path d="M3770 4349 c0 -5 5 -7 10 -4 6 3 10 8 10 11 0 2 -4 4 -10 4 -5 0 -10
-5 -10 -11z"/>
<path d="M3830 4290 c0 -5 5 -10 10 -10 6 0 10 5 10 10 0 6 -4 10 -10 10 -5 0
-10 -4 -10 -10z"/>
<path d="M2667 4143 c-13 -12 -7 -70 8 -83 8 -6 22 -10 32 -8 22 4 30 62 12
84 -12 15 -41 19 -52 7z"/>
<path d="M2845 4128 c-17 -70 -1 -110 39 -95 19 8 23 86 4 105 -19 19 -37 14
-43 -10z"/>
<path d="M3961 4114 c0 -11 3 -14 6 -6 3 7 2 16 -1 19 -3 4 -6 -2 -5 -13z"/>
<path d="M2997 4103 c-6 -9 -10 -49 -8 -75 1 -10 21 -28 49 -42 54 -27 105
-80 145 -148 18 -31 23 -49 16 -54 -25 -15 -181 -52 -197 -47 -9 4 -23 14 -29
24 -38 53 -169 94 -271 86 -56 -4 -70 -9 -89 -32 -46 -53 -23 -125 57 -174 28
-17 53 -31 56 -31 5 0 21 -6 109 -44 17 -8 50 -22 75 -32 56 -23 152 -95 185
-138 58 -76 78 -165 56 -243 -26 -90 -120 -182 -217 -212 -31 -10 -60 -24 -65
-32 -5 -8 -9 -40 -9 -71 0 -48 3 -58 20 -63 11 -3 24 -3 30 0 13 8 40 72 40
96 0 15 7 19 33 19 22 0 28 -3 18 -9 -28 -18 13 -18 64 1 27 10 61 18 75 18
37 0 101 33 144 74 30 28 36 39 30 60 -5 20 -2 26 11 26 12 0 16 8 15 28 -4
51 -2 54 30 47 34 -7 40 7 14 32 -14 14 -13 18 5 37 12 12 21 30 21 40 0 9 5
14 10 11 11 -7 11 -2 16 115 5 150 4 164 -16 180 -14 12 -20 34 -24 95 -12
163 -14 171 -65 223 -57 57 -117 112 -125 112 -3 0 -46 29 -95 65 -89 64 -105
72 -114 58z"/>
<path d="M929 3555 c-17 -17 -44 -30 -75 -36 -54 -10 -74 -23 -58 -39 15 -15
416 -9 421 6 6 18 -48 47 -87 46 -25 -1 -40 4 -51 20 -12 16 -30 22 -70 25
-48 4 -57 2 -80 -22z"/>
<path d="M4424 3418 c-16 -14 -38 -29 -49 -34 -14 -6 13 -10 89 -12 110 -3
132 2 117 26 -7 12 -25 18 -107 39 -13 3 -31 -4 -50 -19z"/>
<path d="M2700 3360 c0 -5 26 -27 58 -50 31 -22 69 -50 84 -62 15 -12 30 -20
32 -17 13 13 -10 50 -49 78 -48 34 -125 66 -125 51z"/>
<path d="M2410 3231 c0 -29 106 -111 144 -111 22 0 20 17 -2 29 -10 5 -40 28
-67 50 -47 39 -75 51 -75 32z"/>
<path d="M2550 2901 c-5 -11 -10 -36 -10 -55 0 -32 3 -36 25 -36 20 0 26 7 35
41 8 30 8 44 -1 55 -16 20 -36 18 -49 -5z"/>
<path d="M2713 2903 c-6 -5 -13 -33 -15 -63 -3 -53 -2 -55 23 -58 34 -4 46 13
51 73 3 47 2 50 -22 53 -14 1 -30 -1 -37 -5z"/>
<path d="M3961 2784 c0 -11 3 -14 6 -6 3 7 2 16 -1 19 -3 4 -6 -2 -5 -13z"/>
<path d="M1055 2628 c-11 -34 -25 -165 -25 -233 0 -48 -4 -74 -10 -70 -6 4
-10 -23 -10 -74 0 -89 -3 -93 -72 -104 -61 -9 -69 7 -67 131 2 114 1 115 -52
126 -15 3 -29 14 -32 26 -7 27 -30 25 -42 -2 -7 -15 -20 -24 -40 -26 -34 -4
-57 -20 -49 -34 8 -13 8 -713 0 -727 -12 -18 -44 -13 -66 12 -17 18 -32 22
-80 22 -48 0 -63 -4 -84 -24 -25 -24 -53 -97 -42 -108 3 -3 63 0 133 6 71 7
198 19 283 27 200 18 792 42 1278 50 272 5 382 10 382 18 0 21 -127 139 -143
133 -8 -3 -17 -24 -21 -46 -5 -33 -10 -41 -27 -41 -12 0 -23 8 -26 19 -3 11
-17 22 -31 26 -44 11 -52 24 -52 87 0 75 -12 98 -50 98 -38 0 -60 -40 -60
-109 0 -65 -7 -81 -36 -81 -19 0 -25 8 -34 40 -6 22 -17 40 -24 40 -20 0 -26
23 -26 106 0 83 2 81 -90 86 l-45 3 -2 125 c-4 176 -2 172 -66 168 l-52 -3 -6
-95 c-4 -52 -7 -193 -8 -312 0 -119 -5 -219 -9 -222 -17 -10 -29 11 -37 59 -4
27 -13 58 -21 69 -11 16 -14 74 -14 286 0 230 -2 269 -17 290 -22 34 -65 80
-74 80 -4 0 -25 -26 -47 -59 l-41 -59 -3 -158 c-3 -149 -4 -160 -25 -182 -18
-17 -23 -34 -24 -74 0 -29 -3 -71 -7 -93 -11 -60 -24 -28 -29 73 -7 138 -4
133 -70 130 l-56 -3 -15 -43 c-8 -24 -17 -41 -20 -38 -3 3 -6 126 -6 273 l-1
268 -29 78 c-27 72 -50 96 -61 65z"/>
<path d="M4143 2503 c-13 -2 -23 -11 -23 -19 0 -8 -7 -25 -15 -38 -12 -17 -18
-79 -26 -262 -5 -131 -12 -293 -15 -359 l-6 -121 -26 2 c-41 2 -40 2 -56 32
-8 15 -15 21 -16 15 0 -7 -4 -13 -10 -13 -5 0 -10 22 -10 48 0 26 -4 52 -10
58 -5 5 -11 68 -12 139 l-3 130 -75 0 -75 0 -3 -35 c-6 -76 -8 -79 -62 -82
l-50 -3 -5 -97 c-2 -54 -9 -106 -14 -117 -6 -11 -11 -33 -11 -49 0 -37 -28
-62 -68 -62 l-32 0 0 90 c0 77 -3 91 -19 99 -13 7 -24 6 -37 -4 -16 -11 -19
-27 -20 -92 -1 -87 -6 -103 -33 -103 -23 0 -38 18 -43 50 -3 27 -40 50 -86 53
-24 2 -27 -2 -30 -31 -3 -28 -7 -33 -25 -30 -15 2 -23 12 -27 33 -4 24 -11 31
-33 33 -15 2 -27 9 -27 17 0 8 32 46 70 84 39 38 70 76 70 85 0 9 7 16 15 16
8 0 15 5 15 11 0 6 -6 9 -12 6 -7 -3 -21 -8 -30 -12 -23 -9 -34 19 -20 50 15
32 -2 42 -31 18 -25 -19 -169 -149 -276 -249 -36 -34 -88 -81 -116 -104 -27
-24 -73 -65 -100 -91 -28 -27 -61 -56 -73 -65 -18 -13 -21 -19 -11 -30 17 -21
244 -20 253 1 4 11 22 15 75 15 101 0 122 14 31 20 -70 5 -75 6 -73 27 3 21
35 63 49 63 3 0 23 14 45 32 33 27 42 30 49 18 6 -8 10 -20 10 -26 0 -19 111
-25 620 -34 572 -11 928 -25 1135 -45 83 -8 176 -15 209 -15 51 0 57 2 46 15
-7 8 -19 15 -26 15 -7 0 -20 13 -28 28 -27 53 -60 64 -138 48 l-38 -8 -2 383
-3 384 -30 3 c-16 1 -40 8 -52 14 -16 8 -30 8 -50 0 -15 -6 -41 -13 -57 -17
l-29 -6 7 -67 c9 -83 8 -608 0 -651 -8 -38 -20 -47 -39 -31 -12 10 -15 54 -15
244 0 127 -4 237 -9 245 -11 17 -100 10 -156 -12 -34 -14 -40 -23 -12 -18 4 0
6 -18 6 -41 l-2 -43 -7 35 -6 35 -7 -40 c-4 -22 -12 -69 -18 -105 -6 -36 -18
-71 -27 -78 -9 -7 -19 -34 -22 -60 -4 -39 -9 -47 -25 -47 -19 0 -20 8 -23 272
-2 255 -4 273 -21 283 -11 6 -21 25 -24 47 -15 102 -21 118 -47 119 -14 1 -35
0 -47 -3z"/>
<path d="M3535 2220 c-3 -5 -1 -10 4 -10 6 0 11 5 11 10 0 6 -2 10 -4 10 -3 0
-8 -4 -11 -10z"/>
<path d="M3475 2160 c-3 -5 -1 -10 4 -10 6 0 11 5 11 10 0 6 -2 10 -4 10 -3 0
-8 -4 -11 -10z"/>
<path d="M3445 2130 c-3 -5 -1 -10 4 -10 6 0 11 5 11 10 0 6 -2 10 -4 10 -3 0
-8 -4 -11 -10z"/>
<path d="M3285 2110 c-8 -13 4 -32 16 -25 12 8 12 35 0 35 -6 0 -13 -4 -16
-10z"/>
<path d="M3257 2083 c-12 -11 -8 -23 8 -23 8 0 15 7 15 15 0 16 -12 20 -23 8z"/>
<path d="M3385 2070 c-3 -5 -1 -10 4 -10 6 0 11 5 11 10 0 6 -2 10 -4 10 -3 0
-8 -4 -11 -10z"/>
<path d="M3320 2020 c-12 -7 -12 -12 -2 -22 14 -14 35 1 24 19 -5 8 -13 9 -22
3z"/>
<path d="M3505 1314 c-22 -35 -213 -77 -405 -90 -58 -4 -123 -12 -145 -19 -22
-7 -57 -16 -78 -19 l-37 -7 24 -22 c25 -22 29 -36 27 -94 -1 -27 -6 -33 -33
-39 l-33 -8 40 -7 c71 -14 196 -9 335 11 176 26 236 40 285 65 l40 22 3 97 c3
101 -5 139 -23 110z"/>
<path d="M3980 1046 c-23 -21 -153 -74 -212 -85 -29 -6 -96 -20 -148 -31 -52
-12 -146 -28 -208 -36 -242 -29 -720 -57 -847 -49 -546 34 -704 47 -727 61 -6
4 -38 10 -72 14 -93 12 -186 33 -186 42 0 4 -8 8 -18 8 -10 0 -38 18 -62 39
-25 22 -48 37 -52 35 -4 -3 -8 -65 -8 -137 0 -101 4 -138 15 -154 15 -21 91
-53 127 -53 10 0 18 -4 18 -9 0 -5 15 -13 32 -16 18 -4 39 -12 46 -18 13 -10
28 -14 202 -48 312 -61 682 -85 1070 -69 290 12 609 50 762 90 40 10 100 26
133 35 70 18 140 59 168 96 18 25 19 36 11 160 -5 74 -14 134 -19 136 -6 2
-17 -3 -25 -11z m-2411 -153 c1 -31 2 -59 3 -62 3 -35 -4 -101 -12 -101 -6 0
-10 43 -10 110 0 113 15 155 19 53z"/>
</g>
</svg>
